<svg width="40" height="51" viewBox="0 0 40 51" fill="none" xmlns="http://www.w3.org/2000/svg">
<path d="M10.6734 38.8461L8.80752 41.8859C3.49857 38.3691 0 32.345 0 25.5C0 14.65 8.79641 5.85245 19.6475 5.85245C21.5912 5.85245 23.4682 6.1298 25.2341 6.66231L22.2354 9.80192C21.4468 9.69098 20.6471 9.62442 19.8364 9.62442C10.9622 9.62442 3.77624 16.8134 3.77624 25.6664C3.77624 31.1247 6.50846 35.9506 10.6734 38.8461ZM39.2951 25.5C39.2951 36.35 30.4987 45.1475 19.6475 45.1475C17.7816 45.1475 15.9824 44.8924 14.2831 44.4042L17.1486 41.4865C18.026 41.6307 18.9256 41.7084 19.8475 41.7084C28.7216 41.7084 35.9076 34.5194 35.9076 25.6664C35.9076 20.075 33.0421 15.1493 28.6994 12.2759L30.6431 9.20285C35.8631 12.7418 39.2951 18.7104 39.2951 25.5Z" fill="#0078F0"/>
<path d="M34.2788 0L12.0725 23.883L18.259 23.0828L10.249 35.1743L16.3907 34.3408L5.85254 51L27.6113 28.9508L21.0333 29.4175L31.1464 16.8148L23.2931 18.9486L34.2788 0Z" fill="#0078F0"/>
</svg>
