<svg width="42" height="31" viewBox="0 0 42 31" fill="none" xmlns="http://www.w3.org/2000/svg">
<path fill-rule="evenodd" clip-rule="evenodd" d="M0 6.77813L20.5451 31L41.0901 6.77813L34.1432 0H6.94689L0 6.77813ZM12.1941 17.8923L8.66882 13.6774C13.0858 14.4935 17.2736 14.7339 20.7041 14.9308H20.7042C24.5151 15.1496 27.3918 15.3147 28.6105 16.1558C29.101 16.5426 28.9914 17.1169 28.625 17.6386C27.432 19.1017 24.5176 19.0466 20.9942 18.98C20.6967 18.9744 20.3949 18.9687 20.0894 18.9638C18.6759 16.5038 14.1292 16.0891 12.1941 17.8923ZM7.94605 2.15554C7.94605 2.15554 3.00543 6.97749 3.0547 6.96503L5.43955 9.81653C6.18908 6.84701 7.89787 4.12713 10.3342 2.15554H7.94605ZM20.5451 27.5613L15.6605 21.8093C20.2092 22.8968 22.8476 22.6181 25.2218 22.0542L20.5451 27.5613ZM27.7261 2.15554H29.7954C29.8409 2.92028 29.4758 3.41239 29.247 3.65501C28.7658 2.96613 28.0053 2.31752 27.7261 2.15554ZM38.0355 6.96503L33.4168 12.5538C31.9872 9.67374 27.9944 8.22731 21.4812 8.37299C13.2977 8.79193 11.9457 6.69914 12.2433 5.45739C12.5481 3.25918 15.8075 2.26449 19.7117 2.22003C23.9616 2.17169 27.6129 3.73858 27.7716 7.38552H34.687V3.61464L38.0355 6.96503Z" fill="#0078F0"/>
</svg>
