<svg width="62" height="27" viewBox="0 0 62 27" fill="none" xmlns="http://www.w3.org/2000/svg">
<path d="M16.2504 0H0L1.86311 2.50193H15.4224L27.5326 21.3707L28.6711 19.4942L16.2504 0Z" fill="#0078F0"/>
<path d="M12.2137 3.02317H1.96661L3.82972 5.5251H14.0768L12.2137 3.02317Z" fill="#0078F0"/>
<path d="M14.4908 6.15058H4.24374C4.79577 7.05405 5.89983 8.54826 5.89983 8.54826C5.89983 8.54826 9.83306 8.44402 11.7997 8.54826L23.9099 27L27.222 21.7876L24.4274 17.4093L22.8748 19.0772L14.4908 6.15058Z" fill="#0078F0"/>
<path d="M22.8748 18.0347L13.3523 3.02317H15.1119L23.9099 16.7838L22.8748 18.0347Z" fill="#0078F0"/>
<path d="M18.7346 3.23166H20.1836L23.8063 8.96525L23.0818 10.0077L18.7346 3.23166Z" fill="#0078F0"/>
<path d="M23.3923 10.529L28.4641 3.02317L27.4291 1.9807L28.9816 0.416988H31.8798L38.7112 10.529L36.4341 13.9691L31.0518 6.46332L25.6695 13.9691L23.3923 10.529Z" fill="#0078F0"/>
<path d="M26.0835 14.6988L31.0518 7.50579L36.02 14.6988L33.2254 18.973L31.0518 15.6371L28.8781 19.0772L26.0835 14.6988Z" fill="#0078F0"/>
<path d="M33.4324 19.4942L45.9566 0H62L60.3439 2.50193H46.7846L34.571 21.1622L33.4324 19.4942Z" fill="#0078F0"/>
<path d="M47.6127 6.15058H57.8598L56.1002 8.65251H50.3038L38.2972 26.8958L34.8815 21.7876L37.7796 17.4093L39.2287 18.973L47.6127 6.15058Z" fill="#0078F0"/>
<path d="M38.0902 16.6795L47.0952 3.02317H48.7513L39.2287 17.8263L38.0902 16.6795Z" fill="#0078F0"/>
<path d="M38.2972 9.0695L42.0234 3.12741H43.369L39.0217 10.112L38.2972 9.0695Z" fill="#0078F0"/>
<path d="M49.5793 3.02317H60.0334L58.2738 5.62934H47.9232L49.5793 3.02317Z" fill="#0078F0"/>
</svg>
