<svg width="40" height="45" viewBox="0 0 40 45" fill="none" xmlns="http://www.w3.org/2000/svg">
<path d="M9.0122 44.8588C9.0122 44.8588 9.22962 45.0674 9.32533 44.9775C9.40373 44.9039 9.32533 44.7006 9.32533 44.7006C8.24782 41.3637 6.46788 36.7047 3.39096 28.6507L3.21941 28.2017C3.10389 27.953 3.01769 27.8773 2.74972 28.083L0.08817 30.0613C-0.0318906 30.2484 -0.0268625 30.3619 0.08817 30.5756C2.91656 35.9362 4.84925 39.0555 9.0122 44.8588Z" fill="#0078F0"/>
<path d="M0.792695 29.1513C0.792695 29.1513 0.441838 29.375 0.323009 29.2304C0.235101 29.1234 0.323009 28.8743 0.323009 28.8743C4.83631 17.2948 8.63112 10.9646 19.1104 0.149579C19.5725 -0.0980926 19.7154 -0.059452 19.6976 0.426539V10.0806C19.6849 10.2432 19.6638 10.3179 19.5801 10.3971C8.23571 22.23 2.33966 28.3418 0.792695 29.1513Z" fill="#0078F0"/>
<path d="M19.6976 11.3863C19.6976 11.3863 19.6964 11.1298 19.5801 11.0697C19.4461 11.0005 19.2279 11.228 19.2279 11.228C19.2279 11.228 14.1308 16.2924 14.3744 16.5298C14.6181 16.7672 19.4627 13.4437 19.4627 13.4437C19.6138 13.3355 19.6629 13.2566 19.6976 13.0876V11.3863Z" fill="#0078F0"/>
<path d="M19.6976 14.3141C19.6976 13.9976 19.4627 13.9785 19.3061 14.0767C19.1496 14.175 13.2793 17.4458 11.1649 19.4577C10.4604 20.2094 10.0299 21.6338 10.0299 21.6338L6.15494 33.3848C5.92543 34.0258 6.15494 34.73 6.15494 34.73C6.15494 34.73 9.26388 43.4886 9.56016 43.9093C9.85644 44.3299 10.1473 44.1863 9.99071 43.6719C9.99071 43.6719 9.0122 37.038 11.7912 30.4569C13.6582 26.0355 19.1496 21.8712 19.1496 21.8712C19.4236 21.6338 19.5695 21.5915 19.6976 21.1986C19.8256 20.8056 19.6976 14.6306 19.6976 14.3141Z" fill="#0078F0"/>
<path d="M5.37213 32.8705L3.53253 27.8852C3.42736 27.6093 3.4771 27.4716 3.72823 27.2521C3.72823 27.2521 9.0122 21.8316 9.28618 21.436C9.56016 21.0403 9.79501 21.2777 9.71673 21.6338C9.63845 21.9899 5.9201 32.8705 5.9201 32.8705C5.72942 33.2239 5.61709 33.3399 5.37213 32.8705Z" fill="#0078F0"/>
<path d="M30.9878 44.8588C30.9878 44.8588 30.7704 45.0674 30.6747 44.9775C30.5963 44.9039 30.6747 44.7006 30.6747 44.7006C31.7522 41.3637 33.5321 36.7047 36.609 28.6507L36.7806 28.2017C36.8961 27.953 36.9823 27.8773 37.2503 28.083L39.9118 30.0613C40.0319 30.2484 40.0269 30.3619 39.9118 30.5756C37.0834 35.9362 35.1507 39.0555 30.9878 44.8588Z" fill="#0078F0"/>
<path d="M39.2073 29.1513C39.2073 29.1513 39.5582 29.375 39.677 29.2304C39.7649 29.1234 39.677 28.8743 39.677 28.8743C35.1637 17.2948 31.3689 10.9646 20.8896 0.149579C20.4275 -0.0980926 20.2846 -0.059452 20.3024 0.426539V10.0806C20.3151 10.2432 20.3362 10.3179 20.4199 10.3971C31.7643 22.23 37.6603 28.3418 39.2073 29.1513Z" fill="#0078F0"/>
<path d="M20.3024 11.3863C20.3024 11.3863 20.3036 11.1298 20.4199 11.0697C20.5539 11.0005 20.7721 11.228 20.7721 11.228C20.7721 11.228 25.8692 16.2924 25.6256 16.5298C25.3819 16.7672 20.5373 13.4437 20.5373 13.4437C20.3862 13.3355 20.3371 13.2566 20.3024 13.0876V11.3863Z" fill="#0078F0"/>
<path d="M20.3024 14.3141C20.3024 13.9976 20.5373 13.9785 20.6939 14.0767C20.8504 14.175 26.7207 17.4458 28.8351 19.4577C29.5396 20.2094 29.9701 21.6338 29.9701 21.6338L33.8451 33.3848C34.0746 34.0258 33.8451 34.73 33.8451 34.73C33.8451 34.73 30.7361 43.4886 30.4398 43.9093C30.1436 44.3299 29.8527 44.1863 30.0093 43.6719C30.0093 43.6719 30.9878 37.038 28.2088 30.4569C26.3418 26.0355 20.8504 21.8712 20.8504 21.8712C20.5764 21.6338 20.4305 21.5915 20.3024 21.1986C20.1744 20.8056 20.3024 14.6306 20.3024 14.3141Z" fill="#0078F0"/>
<path d="M34.6279 32.8705L36.4675 27.8852C36.5726 27.6093 36.5229 27.4716 36.2718 27.2521C36.2718 27.2521 30.9878 21.8316 30.7138 21.436C30.4398 21.0403 30.205 21.2777 30.2833 21.6338C30.3616 21.9899 34.0799 32.8705 34.0799 32.8705C34.2706 33.2239 34.3829 33.3399 34.6279 32.8705Z" fill="#0078F0"/>
</svg>
