<svg width="69" height="24" viewBox="0 0 69 24" fill="none" xmlns="http://www.w3.org/2000/svg">
<path d="M34.435 3.30557C35.402 3.30557 35.7895 3.50402 35.7895 3.50402L36.3698 0.99184C36.3698 0.99184 36.8213 2.90908 37.0149 4.62829C37.2084 6.34749 40.1746 5.22363 42.6897 4.6943C45.2043 4.16538 45.7206 0 45.7206 0L69 0C69 0 54.9418 4.36382 58.489 13.9501C58.489 13.9501 37.7243 10.7105 34.5002 24H34.4998C31.2757 10.7105 10.511 13.9501 10.511 13.9501C14.0578 4.36382 0 0 0 0L23.2794 0C23.2794 0 23.7953 4.16538 26.31 4.6943C28.825 5.22323 31.7916 6.34709 31.9847 4.62829C32.1783 2.90908 32.6298 0.99184 32.6298 0.99184L33.2105 3.50402C33.2105 3.50402 33.5972 3.30557 34.5646 3.30557H34.435Z" fill="#0078F0"/>
</svg>
