<svg width="44" height="44" viewBox="0 0 44 44" fill="none" xmlns="http://www.w3.org/2000/svg">
<path d="M35.7407 22C35.7407 29.44 29.6966 35.4714 22.2408 35.4714C14.785 35.4714 8.74092 29.44 8.74092 22C8.74092 14.56 14.785 8.52864 22.2408 8.52864C29.6966 8.52864 35.7407 14.56 35.7407 22Z" fill="#0078F0"/>
<path d="M22.0465 5.81498C13.0889 5.81498 5.82728 13.0613 5.82728 22C5.82728 30.9387 13.0889 38.185 22.0465 38.185C30.3134 38.185 37.1357 32.0133 38.1388 24.0352H44C42.9708 35.2314 33.5349 44 22.0465 44C9.87057 44 0 34.1503 0 22C0 9.84974 9.87057 0 22.0465 0C33.4019 0 42.7522 8.56685 43.9609 19.5771H38.0853C36.9135 11.7877 30.179 5.81498 22.0465 5.81498Z" fill="#0078F0"/>
</svg>
